<svg xmlns="http://www.w3.org/2000/svg" width="48px" height="48px" viewBox="0 0 48 48">
<path style="fill:#F8485E;" d="M23.9,18.3c-0.5,0-1-0.4-1-1V16c0-0.5,0.4-1,1-1s1,0.4,1,1v1.3C24.9,17.9,24.5,18.3,23.9,18.3z"/>
<path style="fill:#F8485E;" d="M11.6,30.6h-1.3c-0.5,0-1-0.4-1-1c0-0.5,0.4-1,1-1h1.3c0.5,0,1,0.4,1,1S12.2,30.6,11.6,30.6z"/>
<path style="fill:#F8485E;" d="M37.5,30.6h-1.3c-0.5,0-1-0.4-1-1c0-0.5,0.4-1,1-1h1.3c0.5,0,1,0.4,1,1S38.1,30.6,37.5,30.6z"/>
<path style="fill:#F8485E;" d="M17.8,20c-0.3,0-0.7-0.2-0.8-0.5l-0.6-1.1c-0.3-0.5-0.1-1.1,0.4-1.3c0.5-0.3,1.1-0.1,1.3,0.4l0.6,1.1
c0.3,0.5,0.1,1.1-0.4,1.3C18.1,19.9,17.9,20,17.8,20z"/>
<path style="fill:#F8485E;" d="M34.6,24.5c-0.3,0-0.7-0.2-0.8-0.5c-0.3-0.5-0.1-1.1,0.4-1.3l1.1-0.6c0.5-0.3,1.1-0.1,1.3,0.4
c0.3,0.5,0.1,1.1-0.4,1.3l-1.1,0.6C34.9,24.4,34.7,24.5,34.6,24.5z"/>
<path style="fill:#F8485E;" d="M13.3,24.5c-0.2,0-0.3,0-0.5-0.1l-1.1-0.6c-0.5-0.3-0.6-0.9-0.4-1.3c0.3-0.5,0.9-0.6,1.3-0.4l1.1,0.6
c0.5,0.3,0.6,0.9,0.4,1.3C13.9,24.3,13.6,24.5,13.3,24.5z"/>
<path style="fill:#F8485E;" d="M23.9,41.1c0.5,0,1,0.4,1,1v1.3c0,0.5-0.4,1-1,1s-1-0.4-1-1V42C22.9,41.5,23.4,41.1,23.9,41.1z"/>
<path style="fill:#F8485E;" d="M30.1,39.4c0.3,0,0.7,0.2,0.8,0.5l0.6,1.1c0.3,0.5,0.1,1.1-0.4,1.3c-0.5,0.3-1.1,0.1-1.3-0.4
l-0.6-1.1c-0.3-0.5-0.1-1.1,0.4-1.3C29.7,39.5,29.9,39.4,30.1,39.4z"/>
<path style="fill:#F8485E;" d="M13.3,34.9c0.3,0,0.7,0.2,0.8,0.5c0.3,0.5,0.1,1.1-0.4,1.3l-1.1,0.6c-0.5,0.3-1.1,0.1-1.3-0.4
c-0.3-0.5-0.1-1.1,0.4-1.3l1.1-0.6C12.9,35,13.1,34.9,13.3,34.9z"/>
<path style="fill:#F8485E;" d="M17.8,39.4c0.2,0,0.3,0,0.5,0.1c0.5,0.3,0.6,0.9,0.4,1.3L18,42c-0.3,0.5-0.9,0.6-1.3,0.4
c-0.5-0.3-0.6-0.9-0.4-1.3l0.6-1.1C17.1,39.6,17.4,39.4,17.8,39.4z"/>
<path style="fill:#F8485E;" d="M34.6,34.9c0.2,0,0.3,0,0.5,0.1l1.1,0.6c0.5,0.3,0.6,0.9,0.4,1.3c-0.3,0.5-0.9,0.6-1.3,0.4l-1.1-0.6
c-0.5-0.3-0.6-0.9-0.4-1.3C33.9,35.1,34.2,34.9,34.6,34.9z"/>
<path style="fill:#F8485E;" d="M23.8,30.8c-0.2,0-0.3,0-0.5-0.1c-0.5-0.3-0.6-0.9-0.4-1.3l6.8-11.8c0.3-0.5,0.9-0.6,1.3-0.4
c0.5,0.3,0.6,0.9,0.4,1.3l-6.8,11.8C24.5,30.6,24.2,30.8,23.8,30.8z"/>
<path style="fill:#F8485E;" d="M41.1,16.2c0.4,0.4,1,0.3,1.3,0c0.4-0.4,0.4-1,0-1.3l-2.7-2.6c-0.4-0.4-1-0.3-1.3,0
c-0.4,0.4-0.4,1,0,1.3l0.7,0.7l-2.4,2.4c-2.5-2.5-5.8-4.3-9.4-4.9V8.4c1.2-0.3,2-1.4,2-2.7V2.9c0-1.6-1.3-2.8-2.8-2.8h-5.2
c-1.6,0-2.8,1.3-2.8,2.8v2.8c0,1.3,0.9,2.4,2.2,2.7v3.3c-3.6,0.6-6.9,2.3-9.4,4.8L9,14.2l0.7-0.7c0.4-0.4,0.4-1,0-1.3
c-0.4-0.4-1-0.4-1.3,0l-2.7,2.6c-0.4,0.4-0.4,1,0,1.3c0.3,0.4,1,0.4,1.3,0l0.7-0.7l2.2,2.5c-2.7,3.2-4.3,7.3-4.3,11.8
C5.6,39.8,13.8,48,23.9,48c10.1,0,18.3-8.2,18.3-18.3c0-4.4-1.6-8.5-4.2-11.6l2.3-2.4L41.1,16.2z M20.5,5.7V2.9
c0-0.4,0.4-0.8,0.8-0.8h5.2c0.5,0,0.8,0.4,0.8,0.8v2.8c0,0.4-0.3,0.8-0.8,0.8h-5.2C20.9,6.5,20.5,6.1,20.5,5.7z M22.7,8.5h2.6v3
c-0.5,0-0.9-0.1-1.4-0.1c-0.4,0-0.8,0-1.2,0.1V8.5z M23.9,46C15,46,7.6,38.7,7.6,29.7S15,13.6,23.9,13.6c9,0,16.2,7.3,16.2,16.2
c0,0.3,0,0.6,0,1h0C39.6,39.3,32.4,46,23.9,46z"/>
</svg>
