<svg xmlns="http://www.w3.org/2000/svg" width="96px" height="96px" viewBox="0 0 96 96">
<path style="fill:#F8485E;" d="M50.6,34.3c0.6-0.6,0.6-1.5-0.1-2.1c-0.6-0.6-1.5-0.6-2.1,0.1c-1,1-23.7,25.6-31.7,39.1
c-1.4,2.4-2.6,5.4-3.3,7.6c-0.4,1.1-0.2,2.2,0.5,2.9c0.5,0.5,1.1,0.7,1.8,0.7c0.3,0,0.6-0.1,1-0.2c2.1-0.6,5.1-1.7,7.5-3
c13.9-8,39.7-32.3,40.8-33.3c0.6-0.6,0.6-1.5,0.1-2.1c-0.6-0.6-1.5-0.6-2.1-0.1c-0.3,0.2-26.6,25-40.3,32.9c-1.9,1.1-4.4,2-6.3,2.6
c0.6-1.9,1.7-4.5,2.8-6.5C27.2,59.6,50.4,34.5,50.6,34.3z"/>
<path style="fill:#F8485E;" d="M36,75.6c-0.2-0.8-1.1-1.2-1.9-0.9c-0.8,0.2-1.2,1.1-0.9,1.9l5.2,14.8c0.1,0.2,0,0.5-0.2,0.6
l-0.8,0.8l-9.6-12.3c-0.5-0.6-1.4-0.8-2.1-0.2c-0.6,0.5-0.8,1.4-0.2,2.1L35.3,95c0.5,0.6,1.2,1,1.9,1c0.1,0,0.1,0,0.2,0
c0.7,0,1.4-0.2,1.9-0.8l1-1c1-1,1.4-2.5,0.9-3.8L36,75.6z"/>
<path style="fill:#F8485E;" d="M14.5,70.8c0.5,0,0.9-0.2,1.2-0.6c0.5-0.6,0.4-1.6-0.2-2.1L3.2,58.6L4,57.8c0.1-0.1,0.5-0.2,0.6-0.2
l14.6,5.1c0.8,0.2,1.6-0.2,1.9-0.9c0.2-0.8-0.2-1.6-0.9-1.9L5.6,54.8c-1.3-0.4-2.8-0.1-3.8,0.9l-1,1C0.2,57.3,0,58,0,58.8
c0.1,0.7,0.4,1.4,1,1.9l12.5,9.8C13.9,70.7,14.2,70.8,14.5,70.8z"/>
<path style="fill:#F8485E;" d="M83.7,51.5c-0.6,0.6-0.6,1.5,0,2.2c0.3,0.3,0.6,0.4,1,0.4s0.8-0.2,1-0.4c0.6-0.6,1.7-1.7,2.1-2.1
c1.3-1.3,1.3-3.4,0-4.6l-2.8-2.8c-0.7-0.7-1.8-1.1-2.8-1c-0.8,0.2-1.4,0.9-1.3,1.7c0.2,0.8,0.9,1.4,1.7,1.3c0.1,0,0.2,0,0.2,0.1
l2.8,2.8c0.1,0.1,0.1,0.3,0,0.4C85.4,49.8,84.4,50.8,83.7,51.5z"/>
<path style="fill:#F8485E;" d="M61.5,19.3L8.9,4.7C7.8,4.4,6.3,4.6,5.3,5.4L1.9,8c-0.7,0.6-1,1.3-1,2.1c0.1,0.8,0.6,1.4,1.4,1.8
l31.5,16.1c0.5,0.2,1.4,0.9,1.8,1.3l5.6,5.6c0.6,0.6,1.5,0.6,2.1,0c0.6-0.6,0.6-1.5,0-2.1l-5.6-5.6c-0.6-0.6-1.7-1.4-2.5-1.8
L4.6,9.8l2.5-1.9c0.2-0.2,0.8-0.2,1-0.2l53.4,14.7c0.5,0.2,1,0,1.4-0.4C80.7,4.8,90.5,1.5,92.6,3.5c0.3,0.2,0.3,0.8,0.4,1.3
c0.1,4.4-5.8,14.8-19,28.2c-0.4,0.4-0.5,1-0.4,1.4l14.8,53.2c0.1,0.2-0.1,0.8-0.2,1l-1.9,2.5L70.5,60.6c-0.4-0.8-1.2-1.8-1.8-2.5
l-5.2-5.2c-0.6-0.6-1.5-0.6-2.2,0c-0.6,0.6-0.6,1.5,0,2.2l5.2,5.2c0.4,0.4,1,1.2,1.3,1.8L84,93.4c0.4,0.8,1,1.3,1.8,1.4
c0.1,0,0.2,0,0.2,0c0.7,0,1.4-0.3,1.8-1l2.6-3.3c0.7-1,1-2.5,0.7-3.7L76.7,34.5C88.7,22.1,96.1,10.8,96,4.7c0-1.4-0.5-2.6-1.3-3.4
C90.1-3.1,77.7,3.6,61.5,19.3z"/>
<path style="fill:#F8485E;" d="M50.6,15.2c0.2,0.1,0.4,0.1,0.6,0.1c0.6,0,1.2-0.4,1.4-1c0.5-1.2,0.2-2.6-0.7-3.5L49,8
c-1.3-1.3-3.4-1.3-4.7,0l-2.2,2.2c-0.6,0.6-0.6,1.5,0,2.1c0.6,0.6,1.5,0.6,2.1,0l2.2-2.2c0.1-0.1,0.3-0.1,0.4,0l2.8,2.8
c0.1,0.1,0.1,0.2,0.1,0.3C49.4,14.1,49.8,14.9,50.6,15.2z"/>
<path style="fill:#F8485E;" d="M84,12c0.3,0.3,0.6,0.7,0.8,1.2c0.2,0.6,0.8,0.9,1.4,0.9c0.2,0,0.4,0,0.6-0.2c0.8-0.3,1.1-1.2,0.8-2
c-0.3-0.8-0.8-1.5-1.4-2.2c-0.6-0.6-1.4-1.2-2.4-1.5c-0.8-0.3-1.7,0.1-1.9,0.9c-0.3,0.8,0.1,1.7,0.9,1.9C83.2,11.4,83.6,11.6,84,12z
"/>
</svg>
