<svg xmlns="http://www.w3.org/2000/svg" width="96px" height="96px" viewBox="0 0 96 96">
<path style="fill:#F8485E;" d="M92.7,63.7c-0.1-0.1-0.1-0.1-0.2-0.2L69.3,39V11.2h2c3.6,0,6.5-2.5,6.5-5.6S74.9,0,71.3,0h-30
c-3.6,0-6.5,2.5-6.5,5.6s2.9,5.6,6.5,5.6h2V39L31,51.9v3.6l14.8-15.6V11.2h5.4h10.1h5.4v28.7l23.9,25.2l0,0c1.8,1.8,2.8,4.2,2.8,6.9
c0,5.7-5,10.4-11.2,10.4H62.4H50.1H31v2.4h19.1h12.3h19.8C89.8,84.8,96,79.1,96,72C96,69,94.8,66,92.7,63.7z M61.3,8.8H51.2h-5.4
h-4.6c-2.2,0-3.9-1.4-3.9-3.2s1.8-3.2,3.9-3.2h30c2.2,0,3.9,1.4,3.9,3.2s-1.8,3.2-3.9,3.2h-4.6H61.3z"/>
<path style="fill:#F8485E;" d="M83.5,62.7c0,0-0.1-0.1-0.1-0.1l-11.9-11c-0.5-0.5-1.2-0.7-1.9-0.7c-0.1,0-0.2,0-0.2,0
c-2,0.2-4,0.3-5.9,0.3c-7.1,0-13.9-1-20.2-3.1c0,0,0,0-0.1,0l-0.6,2.2c6.3,2,13.4,3.2,20.9,3.2c2.1,0,4.1-0.1,6.1-0.3l11.9,11h0
c1.4,1.3,2.2,3,2.2,4.8c0,4-4,7.2-8.8,7.2H59.3h-9.7H35l-0.7,2.2h15.3h9.7h15.6c6.3,0,11.4-4.3,11.4-9.5
C86.3,66.6,85.3,64.4,83.5,62.7z"/>
<path style="fill:#F8485E;" d="M43.1,59.2c-3.3,0-6,2.5-6,5.6c0,3.1,2.7,5.6,6,5.6s6-2.5,6-5.6C49.1,61.7,46.4,59.2,43.1,59.2z
 M43.1,68c-1.9,0-3.4-1.4-3.4-3.2c0-1.8,1.5-3.2,3.4-3.2c1.9,0,3.4,1.4,3.4,3.2C46.5,66.6,45,68,43.1,68z"/>
<path style="fill:#F8485E;" d="M61.2,56c-2.4,0-4.3,1.8-4.3,4s1.9,4,4.3,4c2.4,0,4.3-1.8,4.3-4S63.5,56,61.2,56z M61.2,61.6
c-1,0-1.7-0.7-1.7-1.6s0.8-1.6,1.7-1.6c1,0,1.7,0.7,1.7,1.6S62.1,61.6,61.2,61.6z"/>
<path style="fill:#F8485E;" d="M55.8,43.4c2.4,0,4.3-1.8,4.3-4c0-2.2-1.9-4-4.3-4c-2.4,0-4.3,1.8-4.3,4
C51.5,41.6,53.4,43.4,55.8,43.4z M55.8,37.8c1,0,1.7,0.7,1.7,1.6c0,0.9-0.8,1.6-1.7,1.6c-1,0-1.7-0.7-1.7-1.6
C54.1,38.5,54.8,37.8,55.8,37.8z"/>
<path style="fill:#F8485E;" d="M31.9,27.2H6c-3.3,0-6,2.5-6,5.6s2.7,5.6,6,5.6h3.5v48.8c0,4.9,4.3,8.8,9.5,8.8s9.5-3.9,9.5-8.8V38.4
h3.5c3.3,0,6-2.5,6-5.6S35.2,27.2,31.9,27.2z M25.8,87.2c0,3.5-3.1,6.4-6.9,6.4s-6.9-2.9-6.9-6.4V70.8h3.9c0.7,0,1.3-0.5,1.3-1.2
c0-0.7-0.6-1.2-1.3-1.2h-3.9v-5.6h3.9c0.7,0,1.3-0.5,1.3-1.2c0-0.7-0.6-1.2-1.3-1.2h-3.9v-5.6h3.9c0.7,0,1.3-0.5,1.3-1.2
c0-0.7-0.6-1.2-1.3-1.2h-3.9v-14h13.8V87.2z M31.9,36h-6.1H12.1H6c-1.9,0-3.4-1.4-3.4-3.2s1.5-3.2,3.4-3.2h25.9
c1.9,0,3.4,1.4,3.4,3.2S33.8,36,31.9,36z"/>
</svg>
