<svg xmlns="http://www.w3.org/2000/svg" width="96px" height="96px" viewBox="0 0 96 96">
<path style="fill:#F8485E;" d="M74.4,14.4H72h-7.2v-2.8c0-2-1.6-3.6-3.6-3.6h-3.1C57,3.4,52.9,0,48,0c-4.9,0-9,3.4-10.1,8h-3.1
c-2,0-3.6,1.6-3.6,3.6v2.8H24h-2.4c-3.5,0-6.4,2.9-6.4,6.4v68.8c0,3.5,2.9,6.4,6.4,6.4h52.8c3.5,0,6.4-2.9,6.4-6.4V20.8
C80.8,17.3,77.9,14.4,74.4,14.4z M33.6,11.6c0-0.7,0.5-1.2,1.2-1.2H40c0-4.4,3.6-8,8-8c4.4,0,8,3.6,8,8h5.2c0.7,0,1.2,0.5,1.2,1.2
v7.2c0,0.7-0.5,1.2-1.2,1.2H34.8c-0.7,0-1.2-0.5-1.2-1.2V11.6z M24,16.8h7.2v2c0,2,1.6,3.6,3.6,3.6h26.4c2,0,3.6-1.6,3.6-3.6v-2H72
v68.8H24V16.8z M78.4,89.6c0,2.2-1.8,4-4,4H21.6c-2.2,0-4-1.8-4-4V20.8c0-2.2,1.8-4,4-4v68.8c0,1.3,1.1,2.4,2.4,2.4h48
c1.3,0,2.4-1.1,2.4-2.4V16.8c2.2,0,4,1.8,4,4V89.6z"/>
<path style="fill:#F8485E;" d="M48,7.2c1.8,0,3.2,1.4,3.2,3.2s-1.4,3.2-3.2,3.2s-3.2-1.4-3.2-3.2S46.2,7.2,48,7.2 M48,4.8
c-3.1,0-5.6,2.5-5.6,5.6S44.9,16,48,16c3.1,0,5.6-2.5,5.6-5.6S51.1,4.8,48,4.8L48,4.8z"/>
<path style="fill:#F8485E;" d="M65.6,74c0,0.7-0.5,1.2-1.2,1.2H31.6c-0.7,0-1.2-0.5-1.2-1.2l0,0c0-0.7,0.5-1.2,1.2-1.2h32.8
C65.1,72.8,65.6,73.3,65.6,74L65.6,74z"/>
<path style="fill:#F8485E;" d="M65.6,63.6c0,0.7-0.5,1.2-1.2,1.2H31.6c-0.7,0-1.2-0.5-1.2-1.2l0,0c0-0.7,0.5-1.2,1.2-1.2h32.8
C65.1,62.4,65.6,62.9,65.6,63.6L65.6,63.6z"/>
<path style="fill:#F8485E;" d="M48.3,50c-0.5,0-0.9-0.3-1.1-0.7l-5.1-10.8L37.4,45c-0.2,0.3-0.6,0.5-1,0.5h-7.6
c-0.7,0-1.2-0.5-1.2-1.2c0-0.7,0.5-1.2,1.2-1.2h7l5.6-7.7c0.3-0.3,0.7-0.5,1.1-0.5c0.4,0,0.8,0.3,1,0.7l4.6,9.9l4.7-14.7
c0.2-0.5,0.6-0.8,1.1-0.8c0.5,0,1,0.3,1.2,0.8l4.6,12.3h7.5c0.7,0,1.2,0.5,1.2,1.2s-0.5,1.2-1.2,1.2h-8.4c-0.5,0-1-0.3-1.1-0.8
L54,34.9l-4.6,14.3C49.3,49.6,48.9,50,48.3,50C48.4,50,48.3,50,48.3,50z"/>
</svg>
