<svg xmlns="http://www.w3.org/2000/svg" width="96px" height="96px" viewBox="0 0 96 96">
<path style="fill:#F8485E;" d="M93.7,36.8L50.8,1C50,0.4,49.1,0,48,0s-2,0.3-2.8,1L2.3,36.8C1,37.9,0.2,39.4,0,41.2
c-0.2,1.7,0.4,3.4,1.4,4.7l2.6,3.2c1.1,1.3,2.6,2.1,4.5,2.2l1.7,0.2v1.8v36.3c0,3.6,2.9,6.5,6.5,6.5h14.5c3.6,0,6.5-2.9,6.5-6.5
V60.3c0-2.2,1.8-3.9,3.9-3.9h12.5c2.2,0,3.9,1.8,3.9,3.9v29.2c0,3.6,2.9,6.5,6.5,6.5H79c3.6,0,6.5-2.9,6.5-6.5V53.2v-1.8l1.8-0.2
c1.8-0.2,3.4-1,4.5-2.2l2.7-3.2C96.8,43.2,96.4,39.1,93.7,36.8z M83.2,51.2v38.4c0,2.2-1.8,3.9-3.9,3.9H64.7c-2.2,0-3.9-1.8-3.9-3.9
V60.3c0-3.6-2.9-6.5-6.5-6.5H41.8c-3.6,0-6.5,2.9-6.5,6.5v29.2c0,2.2-1.8,3.9-3.9,3.9H16.8c-2.2,0-3.9-1.8-3.9-3.9V51.2v-0.9
l0.6-0.6L46.8,22l1.2-1l1.2,1l33.3,27.7l0.6,0.6V51.2z M92.6,44.3L90,47.5c-0.8,0.9-1.8,1.4-3,1.4c-1,0-1.8-0.3-2.6-1L48,17.7
L11.7,48c-0.7,0.6-1.6,0.9-2.6,0.9c-1.2,0-2.2-0.5-3-1.4l-2.6-3.2c-0.6-0.8-1-1.8-0.9-2.9c0.1-1,0.6-2,1.4-2.6L46.8,3l1.2-1l1.2,1
l42.9,35.7c0.8,0.6,1.3,1.6,1.4,2.7C93.6,42.4,93.3,43.5,92.6,44.3z"/>
<path style="fill:#F8485E;" d="M48,48.8c-4.9,0-8.9-4-8.9-9c0-4.9,4-8.9,8.9-8.9c5,0,8.9,4,8.9,8.9C57,44.8,53,48.8,48,48.8z M48,33
c-3.8,0-6.8,3-6.8,6.8s3,6.8,6.8,6.8c3.8,0,6.8-3,6.8-6.8S51.8,33,48,33z"/>
</svg>
